# xmcd CD database file
#
# Track frame offsets:
#	150
#	19005
#	34235
#	49412
#	64177
#	79200
#	93675
#	106950
#	121772
#	136245
#	151972
#	169810
#
# Disc length: 2454 seconds
#
# Revision: 1
# Processed by: cddbd v1.5.1PL2 Copyright (c) Steve Scherf et al.
# Submitted via: CDex 1.51
#
DISCID=9d09940c
DTITLE=The Nashville Superpickers - Pickin' On Creedence Clearwater Revival: A Tribute
DYEAR=1999
DGENRE=Bluegrass
TTITLE0=Born on the Bayou
TTITLE1=I Heard It Through th Grapevine
TTITLE2=Band Moon Risin'
TTITLE3=Who'll Stop the Rain
TTITLE4=Susie Q
TTITLE5=Proud mary
TTITLE6=Green River
TTITLE7=Travelin' Band
TTITLE8=Have You Ever Seen the Rain
TTITLE9=Lodi
TTITLE10=Fortunate Son
TTITLE11=Lookin' Out My Back Door
EXTD=YEAR: 1999
EXTT0=
EXTT1=
EXTT2=
EXTT3=
EXTT4=
EXTT5=
EXTT6=
EXTT7=
EXTT8=
EXTT9=
EXTT10=
EXTT11=
PLAYORDER=
